<mxfile host="app.diagrams.net" modified="2024-01-15T10:00:00.000Z" agent="5.0" etag="def456" version="22.1.16">
  <diagram name="RLHF System Architecture" id="rlhf-system">
    <mxGraphModel dx="1422" dy="794" grid="1" gridSize="10" guides="1" tooltips="1" connect="1" arrows="1" fold="1" page="1" pageScale="1" pageWidth="1654" pageHeight="1169" math="0" shadow="0">
      <root>
        <mxCell id="0" />
        <mxCell id="1" parent="0" />
        
        <!-- 标题 -->
        <mxCell id="title" value="RLHF和在线学习数据治理系统架构" style="text;html=1;strokeColor=none;fillColor=none;align=center;verticalAlign=middle;whiteSpace=wrap;rounded=0;fontSize=24;fontStyle=1;fontColor=#1f4e79;" vertex="1" parent="1">
          <mxGeometry x="550" y="20" width="500" height="40" as="geometry" />
        </mxCell>
        
        <!-- 人类反馈收集层 -->
        <mxCell id="feedback-layer" value="人类反馈收集层" style="rounded=1;whiteSpace=wrap;html=1;fillColor=#e1d5e7;strokeColor=#9673a6;fontSize=16;fontStyle=1;" vertex="1" parent="1">
          <mxGeometry x="50" y="100" width="250" height="40" as="geometry" />
        </mxCell>
        
        <!-- 数据治理专家 -->
        <mxCell id="data-experts" value="数据治理专家&lt;br&gt;• 质量评估&lt;br&gt;• 规则验证&lt;br&gt;• 异常标注" style="rounded=1;whiteSpace=wrap;html=1;fillColor=#f8cecc;strokeColor=#b85450;" vertex="1" parent="1">
          <mxGeometry x="50" y="160" width="120" height="80" as="geometry" />
        </mxCell>
        
        <!-- 业务用户 -->
        <mxCell id="business-users" value="业务用户&lt;br&gt;• 数据使用反馈&lt;br&gt;• 准确性评价&lt;br&gt;• 满意度评分" style="rounded=1;whiteSpace=wrap;html=1;fillColor=#f8cecc;strokeColor=#b85450;" vertex="1" parent="1">
          <mxGeometry x="180" y="160" width="120" height="80" as="geometry" />
        </mxCell>
        
        <!-- 反馈收集API -->
        <mxCell id="feedback-api" value="反馈收集API&lt;br&gt;• RESTful接口&lt;br&gt;• 实时反馈&lt;br&gt;• 批量导入" style="rounded=1;whiteSpace=wrap;html=1;fillColor=#dae8fc;strokeColor=#6c8ebf;" vertex="1" parent="1">
          <mxGeometry x="50" y="260" width="120" height="80" as="geometry" />
        </mxCell>
        
        <!-- 智能采样策略 -->
        <mxCell id="sampling-strategy" value="智能采样策略&lt;br&gt;• 不确定性采样&lt;br&gt;• 多样性采样&lt;br&gt;• 性能驱动采样" style="rounded=1;whiteSpace=wrap;html=1;fillColor=#dae8fc;strokeColor=#6c8ebf;" vertex="1" parent="1">
          <mxGeometry x="180" y="260" width="120" height="80" as="geometry" />
        </mxCell>
        
        <!-- 强化学习优化层 -->
        <mxCell id="rl-layer" value="强化学习优化层" style="rounded=1;whiteSpace=wrap;html=1;fillColor=#d5e8d4;strokeColor=#82b366;fontSize=16;fontStyle=1;" vertex="1" parent="1">
          <mxGeometry x="370" y="100" width="250" height="40" as="geometry" />
        </mxCell>
        
        <!-- 奖励函数设计 -->
        <mxCell id="reward-function" value="奖励函数设计&lt;br&gt;• 准确性奖励&lt;br&gt;• 一致性奖励&lt;br&gt;• 完整性奖励&lt;br&gt;• 及时性奖励" style="rounded=1;whiteSpace=wrap;html=1;fillColor=#fff2cc;strokeColor=#d6b656;" vertex="1" parent="1">
          <mxGeometry x="370" y="160" width="120" height="100" as="geometry" />
        </mxCell>
        
        <!-- PPO训练算法 -->
        <mxCell id="ppo-training" value="PPO训练算法&lt;br&gt;• Actor-Critic网络&lt;br&gt;• 策略梯度优化&lt;br&gt;• 价值函数估计&lt;br&gt;• 经验回放" style="rounded=1;whiteSpace=wrap;html=1;fillColor=#fff2cc;strokeColor=#d6b656;" vertex="1" parent="1">
          <mxGeometry x="500" y="160" width="120" height="100" as="geometry" />
        </mxCell>
        
        <!-- 模型评估 -->
        <mxCell id="model-evaluation" value="模型评估&lt;br&gt;• A/B测试&lt;br&gt;• 性能指标&lt;br&gt;• 统计显著性&lt;br&gt;• 业务影响" style="rounded=1;whiteSpace=wrap;html=1;fillColor=#fff2cc;strokeColor=#d6b656;" vertex="1" parent="1">
          <mxGeometry x="370" y="280" width="120" height="100" as="geometry" />
        </mxCell>
        
        <!-- 版本管理 -->
        <mxCell id="version-management" value="版本管理&lt;br&gt;• 模型版本控制&lt;br&gt;• 灰度发布&lt;br&gt;• 回滚机制&lt;br&gt;• 生命周期管理" style="rounded=1;whiteSpace=wrap;html=1;fillColor=#fff2cc;strokeColor=#d6b656;" vertex="1" parent="1">
          <mxGeometry x="500" y="280" width="120" height="100" as="geometry" />
        </mxCell>
        
        <!-- 在线学习管道层 -->
        <mxCell id="online-learning-layer" value="在线学习管道层" style="rounded=1;whiteSpace=wrap;html=1;fillColor=#ffe6cc;strokeColor=#d79b00;fontSize=16;fontStyle=1;" vertex="1" parent="1">
          <mxGeometry x="690" y="100" width="250" height="40" as="geometry" />
        </mxCell>
        
        <!-- 流式学习架构 -->
        <mxCell id="streaming-learning" value="流式学习架构&lt;br&gt;• Flink流处理&lt;br&gt;• 实时反馈聚合&lt;br&gt;• 增量模型更新&lt;br&gt;• 触发机制" style="rounded=1;whiteSpace=wrap;html=1;fillColor=#e1d5e7;strokeColor=#9673a6;" vertex="1" parent="1">
          <mxGeometry x="690" y="160" width="120" height="100" as="geometry" />
        </mxCell>
        
        <!-- 增量更新策略 -->
        <mxCell id="incremental-update" value="增量更新策略&lt;br&gt;• 微调(Fine-tuning)&lt;br&gt;• EWC防遗忘&lt;br&gt;• 元学习适应&lt;br&gt;• 知识蒸馏" style="rounded=1;whiteSpace=wrap;html=1;fillColor=#e1d5e7;strokeColor=#9673a6;" vertex="1" parent="1">
          <mxGeometry x="820" y="160" width="120" height="100" as="geometry" />
        </mxCell>
        
        <!-- 模型服务 -->
        <mxCell id="model-serving" value="模型服务&lt;br&gt;• 模型推理服务&lt;br&gt;• 负载均衡&lt;br&gt;• 缓存机制&lt;br&gt;• 监控告警" style="rounded=1;whiteSpace=wrap;html=1;fillColor=#e1d5e7;strokeColor=#9673a6;" vertex="1" parent="1">
          <mxGeometry x="690" y="280" width="120" height="100" as="geometry" />
        </mxCell>
        
        <!-- A/B测试框架 -->
        <mxCell id="ab-testing" value="A/B测试框架&lt;br&gt;• 流量分割&lt;br&gt;• 实验设计&lt;br&gt;• 统计分析&lt;br&gt;• 结果评估" style="rounded=1;whiteSpace=wrap;html=1;fillColor=#e1d5e7;strokeColor=#9673a6;" vertex="1" parent="1">
          <mxGeometry x="820" y="280" width="120" height="100" as="geometry" />
        </mxCell>
        
        <!-- 数据存储层 -->
        <mxCell id="storage-layer" value="数据存储层" style="rounded=1;whiteSpace=wrap;html=1;fillColor=#f0f0f0;strokeColor=#666666;fontSize=16;fontStyle=1;" vertex="1" parent="1">
          <mxGeometry x="1010" y="100" width="200" height="40" as="geometry" />
        </mxCell>
        
        <!-- 反馈数据库 -->
        <mxCell id="feedback-db" value="反馈数据库&lt;br&gt;• PostgreSQL&lt;br&gt;• 反馈记录&lt;br&gt;• 聚合统计&lt;br&gt;• 历史追踪" style="rounded=1;whiteSpace=wrap;html=1;fillColor=#d1ecf1;strokeColor=#0c5460;" vertex="1" parent="1">
          <mxGeometry x="1010" y="160" width="120" height="100" as="geometry" />
        </mxCell>
        
        <!-- 模型仓库 -->
        <mxCell id="model-registry" value="模型仓库&lt;br&gt;• MLflow Registry&lt;br&gt;• 版本管理&lt;br&gt;• 元数据存储&lt;br&gt;• 血缘追踪" style="rounded=1;whiteSpace=wrap;html=1;fillColor=#d1ecf1;strokeColor=#0c5460;" vertex="1" parent="1">
          <mxGeometry x="1140" y="160" width="120" height="100" as="geometry" />
        </mxCell>
        
        <!-- 缓存层 -->
        <mxCell id="cache-layer" value="缓存层&lt;br&gt;• Redis集群&lt;br&gt;• 模型缓存&lt;br&gt;• 预测结果&lt;br&gt;• 会话状态" style="rounded=1;whiteSpace=wrap;html=1;fillColor=#d1ecf1;strokeColor=#0c5460;" vertex="1" parent="1">
          <mxGeometry x="1010" y="280" width="120" height="100" as="geometry" />
        </mxCell>
        
        <!-- 消息队列 -->
        <mxCell id="message-queue" value="消息队列&lt;br&gt;• Kafka集群&lt;br&gt;• 事件流&lt;br&gt;• 异步处理&lt;br&gt;• 解耦架构" style="rounded=1;whiteSpace=wrap;html=1;fillColor=#d1ecf1;strokeColor=#0c5460;" vertex="1" parent="1">
          <mxGeometry x="1140" y="280" width="120" height="100" as="geometry" />
        </mxCell>
        
        <!-- 监控运维层 -->
        <mxCell id="monitoring-layer" value="监控运维层" style="rounded=1;whiteSpace=wrap;html=1;fillColor=#d4edda;strokeColor=#28a745;fontSize=16;fontStyle=1;" vertex="1" parent="1">
          <mxGeometry x="1320" y="100" width="200" height="40" as="geometry" />
        </mxCell>
        
        <!-- 性能监控 -->
        <mxCell id="performance-monitoring" value="性能监控&lt;br&gt;• Prometheus&lt;br&gt;• Grafana仪表板&lt;br&gt;• 实时指标&lt;br&gt;• 告警规则" style="rounded=1;whiteSpace=wrap;html=1;fillColor=#f4f4f4;strokeColor=#666666;" vertex="1" parent="1">
          <mxGeometry x="1320" y="160" width="120" height="100" as="geometry" />
        </mxCell>
        
        <!-- 日志分析 -->
        <mxCell id="log-analysis" value="日志分析&lt;br&gt;• ELK Stack&lt;br&gt;• 日志聚合&lt;br&gt;• 异常检测&lt;br&gt;• 链路追踪" style="rounded=1;whiteSpace=wrap;html=1;fillColor=#f4f4f4;strokeColor=#666666;" vertex="1" parent="1">
          <mxGeometry x="1450" y="160" width="120" height="100" as="geometry" />
        </mxCell>
        
        <!-- 自动化运维 -->
        <mxCell id="automation" value="自动化运维&lt;br&gt;• Kubernetes&lt;br&gt;• 自动扩缩容&lt;br&gt;• 故障恢复&lt;br&gt;• CI/CD流水线" style="rounded=1;whiteSpace=wrap;html=1;fillColor=#f4f4f4;strokeColor=#666666;" vertex="1" parent="1">
          <mxGeometry x="1320" y="280" width="120" height="100" as="geometry" />
        </mxCell>
        
        <!-- 安全审计 -->
        <mxCell id="security-audit" value="安全审计&lt;br&gt;• 访问控制&lt;br&gt;• 操作审计&lt;br&gt;• 数据脱敏&lt;br&gt;• 合规检查" style="rounded=1;whiteSpace=wrap;html=1;fillColor=#f4f4f4;strokeColor=#666666;" vertex="1" parent="1">
          <mxGeometry x="1450" y="280" width="120" height="100" as="geometry" />
        </mxCell>
        
        <!-- 数据流箭头 -->
        <mxCell id="flow1" value="反馈收集" style="endArrow=classic;html=1;rounded=0;strokeWidth=2;strokeColor=#e74c3c;" edge="1" parent="1" source="data-experts" target="feedback-api">
          <mxGeometry width="50" height="50" relative="1" as="geometry">
            <mxPoint x="110" y="240" as="sourcePoint" />
            <mxPoint x="110" y="260" as="targetPoint" />
          </mxGeometry>
        </mxCell>
        
        <mxCell id="flow2" value="反馈收集" style="endArrow=classic;html=1;rounded=0;strokeWidth=2;strokeColor=#e74c3c;" edge="1" parent="1" source="business-users" target="sampling-strategy">
          <mxGeometry width="50" height="50" relative="1" as="geometry">
            <mxPoint x="240" y="240" as="sourcePoint" />
            <mxPoint x="240" y="260" as="targetPoint" />
          </mxGeometry>
        </mxCell>
        
        <mxCell id="flow3" value="奖励信号" style="endArrow=classic;html=1;rounded=0;strokeWidth=2;strokeColor=#f39c12;" edge="1" parent="1" source="feedback-api" target="reward-function">
          <mxGeometry width="50" height="50" relative="1" as="geometry">
            <mxPoint x="170" y="300" as="sourcePoint" />
            <mxPoint x="370" y="210" as="targetPoint" />
          </mxGeometry>
        </mxCell>
        
        <mxCell id="flow4" value="策略优化" style="endArrow=classic;html=1;rounded=0;strokeWidth=2;strokeColor=#f39c12;" edge="1" parent="1" source="reward-function" target="ppo-training">
          <mxGeometry width="50" height="50" relative="1" as="geometry">
            <mxPoint x="490" y="210" as="sourcePoint" />
            <mxPoint x="500" y="210" as="targetPoint" />
          </mxGeometry>
        </mxCell>
        
        <mxCell id="flow5" value="模型评估" style="endArrow=classic;html=1;rounded=0;strokeWidth=2;strokeColor=#f39c12;" edge="1" parent="1" source="ppo-training" target="model-evaluation">
          <mxGeometry width="50" height="50" relative="1" as="geometry">
            <mxPoint x="560" y="260" as="sourcePoint" />
            <mxPoint x="430" y="280" as="targetPoint" />
          </mxGeometry>
        </mxCell>
        
        <mxCell id="flow6" value="版本发布" style="endArrow=classic;html=1;rounded=0;strokeWidth=2;strokeColor=#f39c12;" edge="1" parent="1" source="model-evaluation" target="version-management">
          <mxGeometry width="50" height="50" relative="1" as="geometry">
            <mxPoint x="490" y="330" as="sourcePoint" />
            <mxPoint x="500" y="330" as="targetPoint" />
          </mxGeometry>
        </mxCell>
        
        <mxCell id="flow7" value="在线学习" style="endArrow=classic;html=1;rounded=0;strokeWidth=2;strokeColor=#27ae60;" edge="1" parent="1" source="sampling-strategy" target="streaming-learning">
          <mxGeometry width="50" height="50" relative="1" as="geometry">
            <mxPoint x="300" y="300" as="sourcePoint" />
            <mxPoint x="690" y="210" as="targetPoint" />
          </mxGeometry>
        </mxCell>
        
        <mxCell id="flow8" value="增量更新" style="endArrow=classic;html=1;rounded=0;strokeWidth=2;strokeColor=#27ae60;" edge="1" parent="1" source="streaming-learning" target="incremental-update">
          <mxGeometry width="50" height="50" relative="1" as="geometry">
            <mxPoint x="810" y="210" as="sourcePoint" />
            <mxPoint x="820" y="210" as="targetPoint" />
          </mxGeometry>
        </mxCell>
        
        <mxCell id="flow9" value="模型服务" style="endArrow=classic;html=1;rounded=0;strokeWidth=2;strokeColor=#27ae60;" edge="1" parent="1" source="incremental-update" target="model-serving">
          <mxGeometry width="50" height="50" relative="1" as="geometry">
            <mxPoint x="880" y="260" as="sourcePoint" />
            <mxPoint x="750" y="280" as="targetPoint" />
          </mxGeometry>
        </mxCell>
        
        <mxCell id="flow10" value="A/B测试" style="endArrow=classic;html=1;rounded=0;strokeWidth=2;strokeColor=#27ae60;" edge="1" parent="1" source="model-serving" target="ab-testing">
          <mxGeometry width="50" height="50" relative="1" as="geometry">
            <mxPoint x="810" y="330" as="sourcePoint" />
            <mxPoint x="820" y="330" as="targetPoint" />
          </mxGeometry>
        </mxCell>
        
        <mxCell id="flow11" value="数据存储" style="endArrow=classic;html=1;rounded=0;strokeWidth=2;strokeColor=#3498db;" edge="1" parent="1" source="version-management" target="feedback-db">
          <mxGeometry width="50" height="50" relative="1" as="geometry">
            <mxPoint x="620" y="330" as="sourcePoint" />
            <mxPoint x="1010" y="210" as="targetPoint" />
          </mxGeometry>
        </mxCell>
        
        <mxCell id="flow12" value="模型注册" style="endArrow=classic;html=1;rounded=0;strokeWidth=2;strokeColor=#3498db;" edge="1" parent="1" source="ab-testing" target="model-registry">
          <mxGeometry width="50" height="50" relative="1" as="geometry">
            <mxPoint x="940" y="330" as="sourcePoint" />
            <mxPoint x="1140" y="210" as="targetPoint" />
          </mxGeometry>
        </mxCell>
        
        <mxCell id="flow13" value="缓存管理" style="endArrow=classic;html=1;rounded=0;strokeWidth=2;strokeColor=#3498db;" edge="1" parent="1" source="model-serving" target="cache-layer">
          <mxGeometry width="50" height="50" relative="1" as="geometry">
            <mxPoint x="810" y="330" as="sourcePoint" />
            <mxPoint x="1010" y="330" as="targetPoint" />
          </mxGeometry>
        </mxCell>
        
        <mxCell id="flow14" value="事件流" style="endArrow=classic;html=1;rounded=0;strokeWidth=2;strokeColor=#3498db;" edge="1" parent="1" source="streaming-learning" target="message-queue">
          <mxGeometry width="50" height="50" relative="1" as="geometry">
            <mxPoint x="810" y="210" as="sourcePoint" />
            <mxPoint x="1140" y="330" as="targetPoint" />
          </mxGeometry>
        </mxCell>
        
        <mxCell id="flow15" value="监控指标" style="endArrow=classic;html=1;rounded=0;strokeWidth=2;strokeColor=#9b59b6;" edge="1" parent="1" source="feedback-db" target="performance-monitoring">
          <mxGeometry width="50" height="50" relative="1" as="geometry">
            <mxPoint x="1130" y="210" as="sourcePoint" />
            <mxPoint x="1320" y="210" as="targetPoint" />
          </mxGeometry>
        </mxCell>
        
        <mxCell id="flow16" value="日志收集" style="endArrow=classic;html=1;rounded=0;strokeWidth=2;strokeColor=#9b59b6;" edge="1" parent="1" source="model-registry" target="log-analysis">
          <mxGeometry width="50" height="50" relative="1" as="geometry">
            <mxPoint x="1260" y="210" as="sourcePoint" />
            <mxPoint x="1450" y="210" as="targetPoint" />
          </mxGeometry>
        </mxCell>
        
        <mxCell id="flow17" value="自动运维" style="endArrow=classic;html=1;rounded=0;strokeWidth=2;strokeColor=#9b59b6;" edge="1" parent="1" source="cache-layer" target="automation">
          <mxGeometry width="50" height="50" relative="1" as="geometry">
            <mxPoint x="1130" y="330" as="sourcePoint" />
            <mxPoint x="1320" y="330" as="targetPoint" />
          </mxGeometry>
        </mxCell>
        
        <mxCell id="flow18" value="安全审计" style="endArrow=classic;html=1;rounded=0;strokeWidth=2;strokeColor=#9b59b6;" edge="1" parent="1" source="message-queue" target="security-audit">
          <mxGeometry width="50" height="50" relative="1" as="geometry">
            <mxPoint x="1260" y="330" as="sourcePoint" />
            <mxPoint x="1450" y="330" as="targetPoint" />
          </mxGeometry>
        </mxCell>
        
        <!-- 系统特性标注 -->
        <mxCell id="feature1" value="人类反馈循环" style="text;html=1;strokeColor=#b85450;fillColor=#f8cecc;align=center;verticalAlign=middle;whiteSpace=wrap;rounded=1;fontSize=12;fontStyle=1;" vertex="1" parent="1">
          <mxGeometry x="100" y="420" width="120" height="30" as="geometry" />
        </mxCell>
        
        <mxCell id="feature2" value="强化学习优化" style="text;html=1;strokeColor=#d6b656;fillColor=#fff2cc;align=center;verticalAlign=middle;whiteSpace=wrap;rounded=1;fontSize=12;fontStyle=1;" vertex="1" parent="1">
          <mxGeometry x="435" y="420" width="120" height="30" as="geometry" />
        </mxCell>
        
        <mxCell id="feature3" value="在线学习管道" style="text;html=1;strokeColor=#d79b00;fillColor=#ffe6cc;align=center;verticalAlign=middle;whiteSpace=wrap;rounded=1;fontSize=12;fontStyle=1;" vertex="1" parent="1">
          <mxGeometry x="755" y="420" width="120" height="30" as="geometry" />
        </mxCell>
        
        <mxCell id="feature4" value="企业级部署" style="text;html=1;strokeColor=#666666;fillColor=#f0f0f0;align=center;verticalAlign=middle;whiteSpace=wrap;rounded=1;fontSize=12;fontStyle=1;" vertex="1" parent="1">
          <mxGeometry x="1385" y="420" width="100" height="30" as="geometry" />
        </mxCell>
        
        <!-- 关键指标 -->
        <mxCell id="metrics" value="关键指标&lt;br&gt;• 反馈响应时间: &amp;lt;1s&lt;br&gt;• 模型更新频率: 每小时&lt;br&gt;• A/B测试置信度: 95%&lt;br&gt;• 系统可用性: 99.9%&lt;br&gt;• 模型准确率提升: 15%" style="rounded=1;whiteSpace=wrap;html=1;fillColor=#f5f5f5;strokeColor=#666666;align=left;" vertex="1" parent="1">
          <mxGeometry x="50" y="470" width="250" height="120" as="geometry" />
        </mxCell>
        
        <!-- 技术栈 -->
        <mxCell id="tech-stack" value="技术栈&lt;br&gt;• 机器学习: PyTorch, TensorFlow&lt;br&gt;• 流处理: Apache Flink&lt;br&gt;• 数据库: PostgreSQL, Redis&lt;br&gt;• 消息队列: Apache Kafka&lt;br&gt;• 容器化: Docker, Kubernetes&lt;br&gt;• 监控: Prometheus, Grafana" style="rounded=1;whiteSpace=wrap;html=1;fillColor=#f5f5f5;strokeColor=#666666;align=left;" vertex="1" parent="1">
          <mxGeometry x="1320" y="470" width="250" height="120" as="geometry" />
        </mxCell>
        
      </root>
    </mxGraphModel>
  </diagram>
</mxfile>